<?xml version="1.0" standalone="no"?>
<!DOCTYPE svg PUBLIC "-//W3C//DTD SVG 20010904//EN"
 "http://www.w3.org/TR/2001/REC-SVG-20010904/DTD/svg10.dtd">
<svg version="1.0" xmlns="http://www.w3.org/2000/svg"
 width="1753.000000pt" height="1753.000000pt" viewBox="0 0 1753.000000 1753.000000"
 preserveAspectRatio="xMidYMid meet">
<metadata>
Created by potrace 1.14, written by Peter Selinger 2001-2017
</metadata>
<g transform="translate(0.000000,1753.000000) scale(0.100000,-0.100000)"
fill="#000000" stroke="none">
<path d="M8508 16205 c-2 -1 -73 -6 -158 -10 -85 -4 -168 -8 -185 -10 -16 -2
-66 -6 -110 -9 -44 -4 -93 -9 -110 -11 -16 -2 -68 -9 -115 -15 -118 -15 -161
-21 -190 -25 -22 -4 -53 -9 -195 -32 -223 -36 -780 -175 -955 -238 -25 -9 -52
-18 -60 -20 -33 -8 -283 -99 -415 -152 -357 -142 -777 -350 -1065 -526 -41
-26 -88 -54 -105 -63 -31 -18 -335 -220 -420 -281 -309 -218 -630 -493 -942
-808 -201 -202 -232 -236 -356 -380 -37 -44 -78 -91 -91 -105 -43 -48 -233
-296 -323 -420 -77 -108 -205 -299 -309 -463 l-31 -48 -27 40 c-63 90 -205
192 -351 252 -100 41 -267 85 -355 95 -30 3 -66 7 -80 10 -34 6 -217 5 -260
-1 -161 -23 -276 -114 -306 -242 -7 -30 -11 -62 -10 -71 13 -72 23 -156 31
-267 3 -49 8 -119 11 -155 5 -68 9 -123 19 -305 21 -403 28 -649 28 -1090 1
-364 -7 -787 -18 -1005 -2 -47 -7 -139 -10 -205 -3 -66 -7 -154 -10 -195 -7
-115 -15 -239 -20 -300 -2 -30 -7 -95 -10 -145 -3 -49 -8 -110 -10 -135 -2
-25 -7 -83 -10 -130 -3 -47 -8 -96 -10 -110 -2 -14 -6 -68 -10 -120 -3 -52 -8
-106 -10 -120 -2 -14 -6 -61 -10 -105 -3 -44 -8 -96 -10 -115 -2 -19 -7 -64
-10 -100 -3 -36 -8 -85 -10 -110 -6 -63 -14 -154 -20 -225 -3 -33 -7 -80 -10
-105 -2 -25 -7 -74 -10 -110 -3 -36 -7 -90 -10 -120 -32 -374 -40 -550 -39
-890 l1 -306 -58 -37 c-422 -272 -611 -583 -535 -876 9 -36 41 -112 71 -169
l55 -105 -64 -111 c-101 -176 -145 -273 -201 -441 -36 -108 -60 -197 -70 -260
-3 -22 -10 -62 -15 -90 -9 -54 -6 -315 3 -355 4 -14 9 -38 13 -55 11 -60 57
-167 96 -225 72 -108 177 -185 308 -224 71 -22 335 -33 324 -14 -4 7 -25 40
-47 73 -129 196 -198 428 -199 670 -1 184 13 272 69 435 54 158 195 395 300
506 26 28 69 73 94 100 60 64 142 140 204 189 27 22 58 47 67 56 10 8 36 25
59 37 l42 22 66 -26 c80 -33 162 -39 234 -17 147 43 256 134 320 266 21 42 44
77 51 77 8 0 55 -81 109 -187 52 -104 137 -262 189 -353 104 -181 276 -453
289 -458 5 -2 9 -8 9 -13 0 -12 127 -190 248 -349 321 -419 674 -789 1128
-1181 221 -190 719 -547 929 -664 11 -6 58 -34 105 -62 139 -83 224 -128 455
-243 657 -325 1319 -538 2067 -665 13 -2 41 -6 63 -10 22 -3 67 -10 100 -15
87 -13 192 -25 295 -35 30 -3 78 -7 105 -10 94 -9 190 -16 300 -21 137 -7 624
-7 725 0 137 9 245 17 285 21 22 2 69 7 105 10 36 4 115 13 175 21 61 8 124
16 140 18 95 12 471 82 570 108 22 5 48 12 58 14 32 6 249 63 322 84 39 11 77
22 85 24 146 39 573 192 705 251 17 8 75 33 130 56 108 45 476 224 590 287
443 244 839 514 1215 828 58 48 141 119 185 158 125 110 520 508 635 641 58
66 107 122 110 125 32 32 317 401 370 480 8 12 33 47 56 78 53 75 235 361 306
482 364 626 655 1357 808 2030 17 74 33 142 35 150 3 10 19 15 47 16 24 1 84
5 133 8 50 4 124 9 165 11 41 3 111 7 155 10 215 14 313 20 495 30 52 3 124 8
160 10 84 6 253 16 307 19 52 2 55 6 44 42 -10 31 -56 244 -66 304 -3 19 -10
51 -15 70 -11 39 -70 315 -70 325 0 3 -3 4 -7 2 -5 -3 -55 -8 -113 -12 -58 -4
-118 -8 -135 -10 -16 -1 -72 -6 -124 -10 -52 -3 -115 -8 -140 -10 -25 -2 -82
-6 -126 -10 -44 -3 -98 -8 -120 -10 -38 -4 -154 -13 -255 -20 -25 -2 -84 -6
-132 -10 l-86 -7 5 44 c3 23 27 104 53 178 81 226 115 423 113 650 -2 216 -40
410 -114 585 -7 17 -13 32 -14 35 -1 3 -9 21 -18 40 -9 19 -23 93 -32 163
l-16 128 55 62 c31 34 191 197 357 362 312 310 364 369 393 444 22 57 20 177
-5 248 -22 65 -74 146 -128 199 -100 98 -240 126 -352 72 -74 -37 -192 -147
-432 -403 -36 -38 -68 -68 -70 -65 -3 3 -23 68 -45 145 -22 77 -54 181 -70
232 l-29 92 46 36 c97 75 197 241 224 374 14 67 16 229 4 286 -2 11 -7 38 -11
60 -22 129 -113 338 -191 443 -66 88 -156 166 -236 204 -61 29 -85 48 -61 48
9 0 147 99 198 141 451 377 753 774 934 1229 40 101 96 279 105 335 3 16 7 41
10 55 43 230 35 426 -25 606 -67 201 -228 347 -432 389 -72 16 -298 27 -298
15 0 -3 21 -37 46 -75 53 -80 95 -160 124 -237 23 -61 67 -217 75 -268 11 -68
14 -346 5 -405 -76 -479 -395 -907 -955 -1282 -111 -74 -358 -221 -397 -235
-13 -5 -29 11 -69 70 -123 181 -456 612 -519 672 -3 3 -39 43 -80 90 -115 131
-480 494 -625 621 -263 231 -546 447 -825 630 -540 355 -1127 639 -1730 838
-114 38 -469 141 -530 154 -14 3 -74 17 -135 31 -121 29 -119 29 -225 50 -106
21 -127 25 -200 36 -36 6 -78 13 -95 16 -67 11 -82 13 -130 19 -27 3 -60 7
-72 9 -12 3 -48 7 -80 11 -32 3 -71 7 -88 9 -59 8 -220 22 -360 32 -81 6 -672
14 -677 9z m542 -110 c285 -11 333 -15 630 -51 364 -44 782 -132 1165 -245
179 -53 537 -177 660 -229 460 -196 767 -352 1105 -563 371 -231 732 -502
1039 -782 24 -22 58 -53 75 -68 145 -132 406 -403 558 -578 201 -231 548 -691
548 -725 0 -10 -41 -30 -195 -99 l-59 -27 -21 25 c-11 13 -62 82 -112 153 -83
116 -138 188 -236 309 -278 345 -668 734 -1023 1022 -719 583 -1532 1015
-2393 1273 -91 28 -179 54 -196 59 -47 15 -312 78 -395 95 -98 20 -119 24
-220 42 -118 21 -127 22 -179 30 -25 3 -57 8 -71 10 -14 2 -45 7 -70 9 -25 3
-58 7 -75 10 -16 2 -57 7 -90 10 -33 3 -87 8 -120 11 -143 15 -422 27 -615 27
-156 0 -479 -11 -520 -17 -14 -3 -65 -7 -115 -11 -49 -3 -97 -8 -105 -10 -8
-2 -49 -6 -90 -10 -41 -4 -86 -8 -100 -10 -14 -2 -45 -7 -70 -10 -25 -3 -70
-10 -100 -15 -30 -6 -73 -12 -95 -16 -22 -3 -107 -19 -190 -36 -82 -16 -159
-32 -170 -34 -11 -2 -83 -20 -160 -39 -77 -19 -151 -38 -163 -40 -41 -9 -312
-94 -422 -132 -1199 -411 -2273 -1152 -3100 -2138 -277 -331 -504 -656 -716
-1025 -49 -85 -102 -181 -119 -212 -16 -32 -30 -56 -31 -55 -1 1 -5 61 -8 132
-9 186 -23 279 -47 326 -16 32 276 478 520 794 283 366 674 779 1011 1065 47
40 96 82 110 94 23 19 115 93 214 171 234 185 626 441 946 617 141 78 521 268
535 268 4 0 30 11 58 24 153 72 532 213 754 282 197 61 591 161 703 180 14 2
45 9 70 14 138 29 438 75 595 90 61 6 130 13 155 16 83 8 174 14 335 20 88 3
161 7 162 8 3 3 280 -3 443 -9z m115 -549 c61 -4 126 -8 145 -11 19 -2 64 -7
100 -10 65 -6 348 -41 405 -51 91 -15 160 -27 250 -45 55 -11 111 -23 125 -25
14 -3 81 -19 150 -35 888 -215 1728 -611 2465 -1163 163 -121 185 -140 185
-150 0 -5 -3 -7 -6 -4 -3 3 -32 0 -65 -8 -138 -32 -275 -129 -334 -236 -27
-48 -30 -62 -30 -143 0 -93 0 -93 67 -232 10 -21 6 -170 -7 -233 -3 -14 -7
-43 -10 -65 -4 -36 -15 -103 -32 -195 -26 -139 15 -262 118 -361 53 -50 152
-103 226 -120 127 -29 284 -1 400 71 42 26 56 42 79 93 15 34 40 91 57 127 75
164 137 360 154 484 4 28 7 97 8 154 0 56 1 102 3 102 3 0 17 -15 135 -144 45
-49 87 -94 92 -100 6 -6 35 -40 64 -76 30 -36 57 -67 60 -70 16 -13 256 -326
320 -418 13 -18 21 -35 19 -38 -5 -4 -97 -29 -283 -75 -114 -29 -671 -143
-745 -153 -19 -3 -45 -7 -56 -10 -12 -2 -39 -7 -60 -10 -22 -4 -64 -11 -94
-16 -30 -5 -73 -12 -95 -15 -22 -3 -62 -10 -90 -15 -27 -5 -70 -12 -95 -15
-24 -4 -47 -8 -50 -10 -8 -5 -33 17 -62 57 -15 20 -33 42 -40 50 -7 7 -42 47
-77 88 -123 143 -504 512 -515 499 -1 -2 -48 -61 -104 -132 l-101 -127 98 -89
c98 -90 233 -225 335 -336 35 -38 50 -62 43 -66 -12 -7 -63 -15 -152 -25 -27
-3 -54 -8 -59 -11 -4 -3 -59 46 -120 108 -100 101 -162 160 -247 237 l-26 23
-156 -198 c-220 -280 -205 -264 -254 -268 -23 -3 -54 -7 -70 -9 -15 -3 -57 -8
-93 -11 -36 -4 -69 -10 -74 -13 -13 -7 50 75 259 338 94 118 184 232 200 254
l29 38 -29 24 c-63 51 -305 215 -415 281 -197 119 -451 244 -670 331 -77 31
-368 129 -405 137 -11 2 -74 17 -140 34 -112 28 -214 50 -310 66 -22 4 -49 9
-60 10 -18 4 -107 15 -225 30 -25 3 -65 8 -90 11 -75 8 -600 12 -670 5 -74 -7
-70 3 -56 -128 3 -35 9 -91 12 -125 3 -35 7 -74 9 -88 2 -14 7 -63 10 -110 4
-47 8 -92 10 -100 1 -8 6 -50 10 -92 3 -43 8 -90 10 -105 2 -16 6 -62 10 -103
3 -41 8 -88 11 -103 2 -15 -2 -67 -10 -115 -21 -122 -26 -185 -27 -314 -1
-161 18 -293 55 -383 11 -26 12 -35 3 -36 -7 0 -40 -3 -74 -5 -34 -3 -64 -1
-66 3 -3 5 -8 46 -12 93 -4 47 -8 92 -10 100 -2 8 -6 49 -10 90 -3 41 -8 89
-10 105 -6 54 -15 137 -30 295 -9 85 -17 171 -20 190 -2 19 -7 67 -10 105 -3
39 -8 81 -10 95 -2 14 -6 57 -10 95 -3 39 -8 88 -10 110 -2 22 -7 67 -10 100
-3 33 -8 83 -10 110 -3 28 -7 70 -10 95 -2 25 -7 77 -10 115 -4 39 -10 73 -13
76 -15 13 -493 -80 -652 -127 -193 -58 -416 -135 -525 -183 -11 -5 -42 -19
-70 -31 -513 -226 -989 -557 -1375 -955 -117 -120 -180 -190 -180 -198 0 -3
93 -81 206 -174 114 -92 216 -176 228 -187 11 -10 41 -35 66 -55 60 -48 73
-61 63 -62 -4 0 -19 -2 -33 -4 -14 -2 -77 -6 -140 -10 l-115 -6 -200 165
c-110 91 -204 166 -210 166 -5 -1 -28 -26 -50 -57 -22 -31 -53 -74 -69 -97
-16 -23 -56 -81 -89 -131 -33 -49 -61 -91 -62 -93 -1 -1 -40 -5 -86 -8 -46 -3
-101 -7 -121 -9 -21 -1 -38 -1 -38 1 0 18 200 321 289 439 34 44 61 83 61 86
0 8 -233 187 -253 195 -31 11 -283 -355 -446 -646 -30 -52 -54 -96 -56 -98 -4
-5 -94 -12 -360 -27 -49 -3 -121 -7 -160 -10 -38 -2 -110 -7 -160 -10 -49 -3
-121 -8 -160 -10 -38 -3 -119 -7 -180 -10 -60 -3 -137 -8 -170 -10 -33 -2
-109 -7 -170 -10 -60 -3 -139 -8 -175 -10 -36 -2 -126 -7 -200 -10 -74 -4
-140 -8 -147 -10 -19 -6 187 433 283 603 198 347 368 606 577 877 233 301 560
656 811 880 44 39 84 75 90 80 83 79 324 271 481 384 72 52 147 107 167 123
20 15 39 28 42 28 4 0 34 19 69 43 34 24 118 78 187 119 123 74 145 87 265
155 241 136 690 337 985 441 262 92 710 219 840 238 19 3 43 7 52 10 9 3 27 7
40 9 13 3 46 9 73 15 28 5 65 12 83 15 17 3 47 7 65 10 17 3 43 7 57 10 14 2
45 7 70 10 25 3 72 10 105 15 56 8 104 13 235 26 30 3 71 7 90 9 19 2 91 7
160 11 69 3 126 7 127 8 5 5 587 -2 688 -8z m-1441 -2192 c97 -30 179 -105
225 -204 22 -47 26 -68 25 -145 -1 -78 -5 -98 -30 -150 -72 -149 -251 -241
-401 -204 -234 58 -356 299 -256 511 80 168 261 247 437 192z m2553 -149 c97
-63 121 -194 52 -278 -74 -90 -201 -103 -282 -29 -34 30 -60 94 -60 147 -2
144 170 238 290 160z m-3386 -978 c142 -65 231 -187 247 -339 7 -64 2 -131 -9
-143 -7 -6 -72 -14 -169 -20 -52 -3 -115 -8 -140 -10 -25 -2 -83 -6 -130 -10
-47 -3 -110 -8 -140 -11 -30 -2 -92 -7 -138 -9 -82 -6 -82 -6 -92 21 -19 48
-27 144 -18 202 20 130 113 258 229 315 73 35 119 44 210 41 63 -2 90 -8 150
-37z m7604 -114 c-41 -41 -185 -237 -237 -323 -208 -342 -305 -682 -273 -955
18 -147 98 -345 217 -534 55 -88 234 -335 269 -371 8 -8 43 -51 79 -95 35 -44
67 -82 70 -85 3 -3 41 -48 85 -100 44 -52 83 -96 87 -98 5 -2 8 -7 8 -12 0 -4
-73 -81 -162 -172 -191 -192 -198 -200 -311 -342 -267 -332 -406 -623 -413
-866 -4 -111 14 -207 56 -306 11 -26 19 -48 17 -50 -4 -4 -63 -11 -172 -19
-180 -14 -306 -25 -345 -30 -19 -2 -69 -7 -110 -10 -41 -3 -93 -8 -115 -10
-22 -3 -70 -7 -105 -10 -36 -3 -90 -7 -120 -10 -30 -2 -84 -7 -120 -10 -36 -3
-85 -8 -110 -10 -25 -3 -74 -7 -110 -10 -36 -3 -85 -8 -110 -10 -25 -2 -73 -7
-107 -10 -59 -5 -126 -11 -218 -19 -22 -3 -74 -7 -115 -11 -41 -4 -91 -8 -110
-10 -19 -3 -69 -7 -109 -10 -41 -3 -86 -7 -100 -9 -15 -3 -62 -7 -106 -11 -44
-3 -100 -8 -125 -11 -25 -2 -70 -6 -100 -8 -30 -3 -75 -7 -100 -10 -25 -3 -76
-8 -115 -11 -38 -4 -86 -8 -105 -10 -19 -2 -69 -7 -110 -10 -41 -4 -86 -8
-100 -10 -14 -2 -63 -6 -110 -10 -47 -4 -92 -9 -101 -10 -8 -2 -55 -6 -105
-10 -49 -4 -97 -9 -107 -11 -10 -2 -48 -6 -85 -9 -37 -3 -87 -7 -112 -10 -25
-3 -74 -7 -110 -10 -36 -3 -81 -8 -100 -10 -19 -2 -62 -6 -95 -10 -33 -3 -76
-8 -95 -10 -19 -2 -66 -7 -105 -10 -38 -3 -83 -8 -100 -10 -16 -2 -61 -7 -100
-10 -72 -6 -125 -12 -205 -21 -25 -2 -67 -7 -95 -9 -27 -3 -70 -7 -95 -10 -25
-2 -70 -7 -100 -10 -30 -3 -71 -8 -90 -10 -19 -2 -64 -7 -100 -10 -36 -3 -81
-8 -100 -10 -19 -2 -64 -7 -100 -10 -36 -4 -76 -8 -90 -10 -14 -2 -54 -7 -90
-10 -36 -3 -81 -8 -100 -10 -19 -2 -64 -7 -100 -10 -71 -7 -125 -13 -180 -19
-19 -3 -60 -8 -90 -11 -30 -3 -71 -8 -90 -10 -19 -2 -62 -7 -95 -10 -55 -5
-94 -9 -180 -20 -16 -2 -61 -7 -100 -10 -38 -4 -76 -8 -85 -10 -8 -2 -46 -6
-85 -10 -38 -4 -79 -9 -89 -11 -10 -2 -51 -6 -90 -10 -39 -3 -84 -7 -101 -10
-16 -2 -55 -6 -85 -10 -30 -3 -66 -7 -80 -9 -14 -2 -52 -7 -85 -10 -33 -4 -72
-9 -88 -11 -15 -2 -51 -7 -80 -9 -28 -3 -86 -10 -127 -15 -41 -5 -97 -12 -125
-15 -27 -3 -64 -8 -81 -10 -17 -2 -57 -7 -90 -10 -32 -4 -70 -8 -84 -10 -14
-2 -45 -7 -70 -10 -25 -3 -117 -14 -205 -25 -88 -11 -177 -22 -198 -25 -21 -3
-75 -9 -120 -15 -45 -6 -100 -12 -122 -15 -22 -3 -58 -7 -80 -11 -22 -3 -51
-7 -65 -9 -14 -2 -81 -11 -149 -20 -149 -19 -186 -24 -226 -30 -28 -5 -33 -1
-52 38 -44 91 -112 147 -237 197 -42 17 -103 36 -137 43 l-61 12 62 75 c114
139 244 365 344 595 55 126 61 143 146 395 79 235 92 271 96 267 2 -1 6 -39 9
-82 3 -44 7 -97 10 -117 3 -21 7 -57 11 -80 5 -44 15 -108 33 -209 14 -82 55
-240 91 -349 54 -165 120 -267 234 -358 102 -82 282 -157 421 -177 23 -3 52
-8 65 -11 47 -9 295 -6 343 5 101 24 173 78 265 200 101 134 242 440 342 744
18 53 33 97 35 97 1 0 15 -35 30 -77 159 -438 478 -665 870 -619 268 31 499
255 696 673 19 40 36 72 39 72 3 1 14 -13 24 -31 28 -47 172 -187 246 -239 92
-65 190 -114 295 -145 127 -37 326 -44 435 -13 231 64 433 272 604 624 l29 60
92 -90 c50 -49 111 -103 136 -120 24 -16 50 -36 57 -42 45 -43 246 -143 372
-186 214 -74 463 -97 651 -61 333 63 633 279 1004 720 156 187 433 621 632
994 151 281 333 645 355 710 3 8 -13 37 -36 65 -117 141 -187 186 -308 193
-95 6 -179 -18 -295 -84 -42 -25 -93 -49 -113 -54 -45 -12 -67 -42 -193 -261
-369 -644 -727 -1114 -977 -1285 -109 -75 -190 -94 -280 -68 -67 19 -82 52
-96 194 -3 36 -8 81 -10 100 -4 44 -5 416 0 450 2 14 4 35 5 46 1 17 11 24 46
33 75 19 247 89 357 145 273 140 500 323 633 511 63 89 93 148 127 249 27 79
31 106 32 201 1 125 -4 158 -38 247 -33 90 -67 152 -125 235 -91 129 -226 248
-366 322 -22 12 -35 22 -30 22 36 5 53 8 80 12 17 3 50 9 75 12 25 4 53 9 64
11 10 2 37 6 60 8 22 3 50 7 61 10 11 2 55 9 98 16 43 6 88 13 100 15 64 11
215 37 237 40 14 2 39 6 55 9 17 3 46 8 65 11 227 37 832 153 921 176 20 5 49
11 65 13 40 5 337 73 399 91 28 8 64 17 80 20 17 3 66 16 110 29 112 33 125
33 90 -1z m-3695 -661 c-222 -180 -417 -447 -544 -745 -55 -130 -133 -368
-149 -457 -3 -14 -10 -43 -16 -65 -6 -22 -13 -58 -16 -80 -14 -88 -39 -174
-149 -506 -108 -326 -243 -708 -253 -719 -5 -5 3 478 12 735 15 416 19 816 10
870 -5 30 -16 91 -20 110 -2 6 -16 40 -33 76 -94 200 -331 387 -568 448 -116
30 -266 12 -354 -44 -75 -48 -156 -143 -198 -235 -22 -47 -60 -167 -68 -210
-2 -14 -9 -47 -14 -75 -5 -27 -12 -63 -14 -80 -2 -16 -7 -48 -10 -70 -6 -39
-8 -60 -20 -200 -13 -157 -16 -205 -22 -393 l-6 -197 -45 -128 c-55 -161 -168
-464 -200 -537 -13 -30 -36 -84 -50 -120 -31 -79 -43 -94 -44 -54 0 16 -2 47
-4 69 -16 187 -22 696 -11 998 7 179 17 418 21 475 26 388 25 413 -18 499 -78
154 -291 257 -551 267 -48 2 -90 7 -94 11 -4 4 -2 5 3 4 10 -3 172 10 208 16
10 2 55 6 99 10 45 4 90 8 100 10 10 2 55 7 100 10 45 3 84 8 87 10 4 1 42 6
86 9 44 4 96 9 115 11 19 2 60 7 90 10 56 5 118 13 179 21 18 2 63 7 100 9 36
3 77 7 91 10 14 2 57 7 95 10 39 3 81 8 95 10 14 3 52 7 85 10 33 3 71 8 85
10 14 3 53 7 88 10 35 4 72 8 83 10 11 2 50 7 87 10 37 3 78 8 92 10 14 2 70
9 125 15 55 6 118 13 140 15 84 10 132 16 205 25 41 5 102 12 135 16 33 3 68
8 78 10 10 2 45 6 78 9 33 4 68 8 77 10 9 1 46 6 82 10 36 3 72 8 80 10 8 2
44 7 80 10 36 4 72 8 80 10 9 2 43 6 75 10 33 4 71 9 85 11 14 2 50 6 80 10
30 3 56 7 57 8 1 1 12 2 25 3 19 1 16 -4 -22 -35z m4581 -154 c37 -72 132
-128 233 -137 l69 -6 29 -90 c37 -114 114 -381 122 -420 6 -32 17 -18 -159
-207 -35 -38 -65 -68 -68 -68 -2 0 -12 33 -22 73 -55 229 -229 790 -255 822
-6 7 -4 19 6 33 19 28 30 28 45 0z m-8233 -238 c-117 -36 -175 -135 -253 -435
-8 -27 -23 -85 -34 -127 -50 -185 -66 -249 -171 -653 -45 -175 -142 -540 -214
-805 -13 -47 -52 -186 -87 -310 -61 -215 -64 -223 -69 -175 -10 101 -1 532 15
730 2 28 7 84 10 125 7 83 13 156 20 210 2 19 7 60 10 90 4 30 8 66 10 80 2
14 9 61 15 105 6 44 15 103 20 130 5 28 12 66 15 85 6 36 45 199 68 283 27 99
-10 216 -94 298 -133 130 -465 219 -690 185 -46 -7 -48 -9 -99 -93 -98 -159
-184 -374 -283 -708 -10 -34 -12 -37 -15 -15 -3 22 -39 199 -46 225 -2 6 -6
24 -11 40 -30 117 -137 347 -221 478 -25 39 -38 68 -31 68 6 1 21 3 32 4 20 2
144 13 240 21 28 2 73 6 100 8 50 5 110 11 235 21 36 3 81 8 100 10 19 2 67 6
105 10 39 3 90 7 115 10 25 2 74 7 110 10 36 3 83 8 105 10 22 2 69 7 105 10
36 3 83 8 105 10 22 2 69 7 105 10 36 3 83 7 105 10 38 4 75 8 210 20 33 4 76
8 95 10 19 2 71 7 115 10 44 4 81 8 82 9 1 0 23 2 50 3 39 1 43 0 21 -7z
m8068 -248 c41 -130 94 -316 94 -328 0 -16 -106 119 -158 202 -42 66 -82 167
-84 207 -1 31 20 86 51 135 15 24 15 24 33 -23 10 -26 39 -113 64 -193z
m-12366 -182 c-46 -91 -116 -282 -136 -372 -2 -10 -7 -28 -10 -40 -64 -259
-19 -567 132 -906 l47 -104 -29 -26 c-139 -127 -243 -384 -289 -712 -23 -163
-33 -496 -20 -630 33 -317 147 -582 336 -777 48 -50 50 -52 27 -57 -20 -4
-376 -91 -418 -101 -68 -18 -142 -39 -178 -51 -23 -8 -45 -14 -47 -14 -5 0
-42 118 -49 154 -2 11 -14 56 -26 98 -11 43 -23 85 -25 95 -2 10 -18 81 -35
158 -38 171 -39 189 -15 388 2 15 6 59 10 97 4 38 8 82 10 97 2 15 7 60 10 98
4 39 8 77 10 85 2 8 7 47 11 85 3 39 8 79 10 90 2 11 6 45 9 75 3 30 10 87 15
125 5 39 12 95 15 125 4 30 8 66 10 80 2 14 6 50 10 80 3 30 8 71 10 90 7 53
12 99 20 170 4 36 9 73 10 82 2 9 7 48 10 85 4 37 9 75 10 83 2 8 6 47 10 85
4 39 9 78 11 88 2 10 6 48 10 85 3 36 7 73 9 82 1 8 6 49 10 90 4 41 9 82 10
91 2 9 6 52 10 95 4 43 9 86 10 94 2 13 9 72 20 180 2 19 7 67 10 105 3 39 8
88 10 110 9 91 16 173 20 218 2 27 5 51 7 53 8 7 62 12 318 30 52 3 97 8 99
10 2 2 8 1 12 -2 5 -3 -5 -31 -21 -64z m1273 -191 c174 -67 332 -276 361 -479
15 -103 22 -431 11 -545 -6 -72 -15 -147 -20 -170 -2 -11 -4 -26 -4 -32 -2
-33 -194 3 -299 56 -217 110 -357 328 -406 632 -36 228 34 496 146 553 41 21
134 15 211 -15z m11061 -1676 c-14 -162 -132 -335 -280 -407 -95 -47 -101 -45
-63 22 77 138 319 448 340 436 4 -2 5 -25 3 -51z m-10966 -459 c17 -3 21 -8
15 -17 -5 -7 -18 -34 -27 -62 -26 -71 -119 -246 -178 -335 -48 -71 -140 -191
-144 -187 -14 14 -19 259 -9 347 10 80 34 205 50 256 l15 50 127 -24 c71 -13
139 -26 151 -28z m11687 -1084 c-2 -8 -12 -54 -24 -102 -11 -48 -22 -98 -25
-110 -4 -24 -43 -166 -77 -283 -51 -175 -170 -526 -204 -600 -7 -16 -31 -75
-53 -130 -71 -176 -234 -522 -320 -676 -10 -19 -45 -81 -77 -139 -104 -188
-282 -464 -440 -684 -75 -104 -259 -342 -275 -356 -3 -3 -30 -34 -59 -70 -216
-262 -510 -559 -806 -816 -183 -158 -247 -210 -440 -353 -82 -61 -154 -114
-160 -118 -38 -29 -370 -242 -460 -295 -221 -131 -561 -309 -745 -388 -41 -18
-79 -36 -85 -40 -5 -4 -19 -10 -30 -13 -11 -3 -76 -28 -145 -57 -141 -58 -155
-63 -335 -126 -150 -52 -320 -106 -410 -130 -57 -15 -334 -87 -345 -89 -67
-15 -262 -55 -290 -60 -19 -3 -42 -8 -50 -10 -8 -2 -33 -7 -55 -10 -23 -3 -52
-7 -65 -10 -13 -3 -42 -7 -65 -10 -22 -4 -51 -8 -65 -10 -36 -6 -167 -23 -230
-30 -19 -2 -69 -7 -110 -11 -41 -3 -82 -8 -91 -9 -100 -19 -878 -27 -1069 -12
-52 5 -115 10 -140 12 -25 2 -80 7 -123 10 -44 4 -87 8 -97 10 -10 2 -46 6
-79 10 -33 3 -68 7 -78 9 -10 2 -40 7 -68 10 -57 8 -68 10 -225 37 -63 11
-122 22 -130 24 -8 2 -31 6 -50 9 -19 3 -50 10 -68 15 -18 5 -33 10 -35 9 -23
-2 -276 60 -492 122 -289 83 -680 224 -900 325 -38 17 -99 45 -135 61 -164 73
-509 256 -700 372 -132 80 -448 287 -460 301 -3 3 -27 22 -55 41 -103 71 -458
353 -516 409 -9 9 -47 43 -85 76 -120 104 -485 474 -616 625 -125 144 -207
244 -339 415 -102 134 -305 433 -426 630 -123 200 -358 648 -350 668 4 11 256
102 263 95 2 -2 41 -79 88 -170 340 -669 753 -1236 1296 -1778 232 -233 348
-338 555 -506 809 -654 1758 -1124 2765 -1368 135 -32 464 -98 555 -111 22 -3
51 -7 65 -10 32 -6 80 -12 155 -20 33 -4 71 -8 85 -11 14 -2 56 -6 95 -10 38
-3 86 -7 105 -10 120 -13 294 -19 575 -19 369 0 576 10 815 40 19 2 56 7 82
10 58 6 91 11 248 36 69 11 141 22 160 25 19 3 51 9 70 14 19 5 51 12 70 15
184 32 594 142 840 227 915 315 1701 777 2430 1427 91 81 413 400 495 491 28
30 80 89 115 130 36 41 68 77 71 80 3 3 59 73 125 155 145 183 260 342 389
540 54 83 106 162 116 177 11 15 19 30 19 33 0 3 12 24 27 48 29 45 29 44 88
152 21 39 41 75 45 80 10 14 171 335 209 418 45 98 147 338 156 367 4 14 13
39 20 55 58 132 175 504 241 763 25 97 46 177 47 178 1 1 58 5 127 9 69 4 127
9 128 11 11 9 40 -2 37 -16z m-565 -24 c0 -28 -88 -345 -143 -516 -120 -370
-327 -848 -501 -1154 -31 -54 -56 -100 -56 -102 0 -2 -32 -56 -72 -121 -298
-492 -633 -919 -1042 -1326 -811 -809 -1803 -1394 -2891 -1706 -199 -56 -407
-108 -515 -127 -14 -2 -45 -9 -70 -14 -53 -11 -199 -37 -255 -44 -22 -4 -51
-8 -65 -11 -14 -2 -47 -7 -75 -10 -27 -3 -66 -7 -85 -10 -43 -6 -103 -12 -195
-20 -38 -3 -88 -8 -110 -10 -208 -23 -749 -23 -1015 0 -25 2 -83 7 -130 11
-47 3 -93 8 -102 10 -9 1 -48 6 -85 9 -37 4 -75 9 -83 10 -8 1 -35 6 -60 9
-163 24 -437 76 -590 112 -58 14 -112 27 -121 29 -125 26 -526 154 -729 232
-348 133 -766 335 -1023 492 -37 22 -70 41 -73 41 -2 0 -17 8 -32 19 -15 10
-106 70 -202 133 -244 160 -443 311 -685 517 -265 228 -562 529 -786 797 -247
297 -533 710 -704 1019 -21 39 -47 85 -57 104 -43 76 -140 273 -136 276 5 5
265 72 353 91 253 55 546 110 630 119 17 2 66 8 110 14 44 6 112 13 150 16 39
4 84 8 100 10 37 5 361 6 395 1 160 -22 182 -31 293 -112 49 -36 95 -68 102
-70 7 -3 46 32 88 76 42 45 80 80 85 79 5 -2 38 -38 73 -79 158 -186 525 -550
555 -550 11 0 64 58 141 153 32 39 61 74 66 75 19 9 0 35 -75 103 -142 127
-386 379 -451 466 -21 28 -36 46 -65 78 -11 13 -10 15 10 16 13 0 30 2 38 3 8
2 44 7 80 11 36 4 73 8 82 10 11 2 37 -19 70 -58 58 -70 365 -377 417 -419 19
-15 37 -25 41 -23 6 4 141 175 357 454 46 58 93 118 105 133 24 28 23 28 188
43 36 4 75 8 88 10 l22 4 -22 -32 c-41 -57 -419 -544 -571 -736 -9 -10 -5 -18
15 -35 51 -42 91 -71 102 -75 6 -2 13 -7 16 -11 3 -4 53 -39 112 -78 349 -234
729 -415 1123 -536 83 -26 164 -51 180 -56 39 -12 338 -77 390 -85 23 -3 50
-7 60 -9 11 -2 61 -9 110 -15 50 -7 104 -14 120 -16 135 -19 766 -28 806 -13
13 5 14 17 8 70 -4 34 -11 99 -14 143 -4 44 -9 89 -11 99 -2 11 -6 52 -9 92
-3 39 -7 80 -9 90 -2 11 -7 57 -11 104 -4 47 -9 92 -10 100 -2 8 -6 49 -10 90
-3 41 -8 86 -10 100 -3 24 -15 140 -20 205 -1 17 -5 57 -9 90 -11 99 -15 137
-21 210 -3 39 -8 86 -11 105 -2 19 -7 62 -9 95 -3 33 -7 74 -10 90 -2 17 -7
66 -10 110 -4 44 -9 88 -11 97 -3 21 10 25 124 33 74 6 82 4 83 -12 0 -10 2
-27 3 -38 2 -11 6 -57 10 -101 4 -45 9 -94 11 -110 2 -16 7 -67 11 -114 3 -47
8 -87 9 -90 2 -4 7 -51 11 -105 3 -55 8 -103 10 -106 2 -4 7 -47 10 -95 3 -49
8 -92 10 -95 1 -3 6 -45 9 -95 4 -49 9 -98 11 -108 2 -11 6 -52 9 -92 3 -39 7
-80 9 -90 2 -11 7 -53 10 -94 4 -41 9 -88 11 -105 2 -16 6 -59 10 -95 3 -36 8
-78 10 -95 2 -16 7 -61 11 -100 4 -38 8 -79 9 -90 1 -11 3 -32 4 -46 1 -26 1
-26 61 -17 63 8 108 15 150 23 14 3 39 7 55 10 17 3 41 7 55 10 14 3 39 8 55
11 71 13 250 58 375 96 428 127 842 324 1220 581 117 79 290 213 415 321 143
123 445 433 445 456 0 4 -44 43 -97 86 -54 43 -103 83 -109 89 -7 5 -26 21
-44 35 -18 14 -37 30 -44 35 -6 6 -81 67 -166 135 -85 69 -157 127 -160 130
-3 3 -22 18 -43 34 -55 40 -58 39 128 51 61 4 113 8 116 9 7 1 108 -79 359
-283 102 -83 190 -151 196 -151 5 0 25 21 44 48 114 160 155 221 220 328 40
65 74 120 75 122 2 3 23 5 172 17 l72 6 -22 -40 c-105 -189 -212 -356 -338
-527 l-66 -90 130 -108 c121 -99 132 -106 144 -89 7 10 19 25 26 33 143 177
336 482 465 738 l57 112 40 1 c22 1 49 3 60 4 11 2 67 6 125 10 58 3 132 8
165 11 33 2 94 7 135 9 41 3 100 7 130 10 30 2 100 7 155 10 55 3 120 8 145
10 25 3 83 7 130 10 150 9 244 16 290 20 25 2 90 7 145 10 55 3 120 8 145 10
25 2 99 6 165 10 66 3 121 7 122 8 4 5 83 7 83 3z m-5289 -481 c168 -44 314
-196 350 -364 10 -50 8 -168 -5 -221 -29 -123 -130 -246 -251 -306 -85 -42
-99 -45 -199 -49 -257 -10 -476 189 -492 445 -14 226 137 434 359 495 61 17
173 17 238 0z m1300 -5 c88 -48 121 -150 75 -238 -30 -59 -110 -99 -174 -87
-179 32 -199 274 -27 332 35 12 96 9 126 -7z m-3086 -83 c23 -36 62 -138 70
-182 27 -162 -26 -335 -139 -454 -129 -137 -326 -195 -504 -150 -299 76 -467
368 -383 666 16 58 12 56 156 68 50 4 104 8 120 11 17 2 62 6 100 10 39 3 81
7 95 10 14 2 66 6 115 10 50 3 92 7 95 9 3 2 55 6 115 10 61 4 112 9 114 11
11 10 32 2 46 -19z m2634 -692 c32 -16 61 -69 61 -110 0 -72 -75 -131 -147
-115 -101 23 -131 148 -52 214 35 30 93 35 138 11z m-4168 -58 c59 -32 99 -89
106 -155 4 -43 1 -61 -22 -107 -61 -125 -217 -151 -315 -53 -124 122 -35 338
140 338 30 0 63 -8 91 -23z m1844 -90 c108 -41 186 -111 237 -214 31 -64 33
-74 33 -173 0 -97 -2 -110 -32 -172 -41 -86 -116 -161 -202 -201 -88 -41 -212
-48 -299 -15 -385 143 -364 677 31 783 63 16 176 13 232 -8z"/>
<path d="M8677 14213 c-2 -1 -184 -11 -230 -12 -28 -1 -28 -2 -23 -43 3 -24 8
-78 12 -122 3 -43 8 -85 9 -95 2 -9 4 -31 4 -48 l1 -33 73 7 c150 13 639 5
757 -12 14 -2 50 -7 80 -10 107 -12 176 -23 325 -51 550 -102 1128 -327 1585
-618 66 -42 215 -140 225 -148 49 -40 187 -139 189 -136 145 180 206 262 199
268 -4 4 -51 39 -105 79 -489 360 -1064 639 -1638 796 -104 28 -325 80 -380
89 -19 3 -46 8 -60 11 -68 14 -232 37 -355 50 -38 4 -78 9 -88 11 -47 8 -573
24 -580 17z"/>
<path d="M8189 14176 c-2 -2 -26 -7 -54 -10 -88 -12 -119 -17 -175 -27 -30 -6
-66 -12 -80 -15 -59 -10 -177 -36 -205 -44 -16 -5 -41 -11 -55 -14 -47 -9 -66
-14 -121 -31 -30 -9 -64 -18 -77 -21 -56 -11 -372 -123 -512 -181 -263 -109
-567 -269 -796 -418 -106 -69 -324 -222 -334 -235 -3 -3 -33 -27 -67 -53 -34
-26 -68 -53 -75 -60 -7 -6 -31 -27 -53 -46 -80 -68 -199 -178 -277 -256 -99
-99 -260 -271 -270 -288 -4 -9 31 -42 104 -97 60 -47 120 -93 133 -102 22 -17
23 -17 76 45 68 78 303 313 393 392 457 403 1002 719 1566 908 219 74 423 131
548 153 12 2 33 6 47 8 14 3 33 7 43 10 9 3 35 7 57 11 22 3 54 8 70 10 65 11
90 15 132 21 41 6 44 8 38 33 -3 14 -7 51 -9 81 -15 206 -24 248 -47 226z"/>
<path d="M13754 6538 l-62 -173 -153 -41 c-85 -22 -166 -45 -181 -50 -27 -9
-24 -12 108 -114 75 -58 141 -108 146 -111 6 -4 10 -19 11 -35 0 -37 -13 -279
-18 -321 l-3 -32 56 37 c31 20 59 39 62 42 12 12 191 130 198 130 4 0 81 -29
172 -64 91 -36 166 -61 168 -57 1 4 -20 84 -47 177 -39 135 -47 172 -38 186 7
9 59 73 116 143 57 69 101 129 98 131 -5 5 -140 11 -287 13 l-75 1 -31 48
c-17 26 -62 95 -100 154 -38 60 -71 108 -74 108 -3 0 -33 -78 -66 -172z"/>
<path d="M12340 6203 c-1 -14 -222 -245 -341 -358 -130 -122 -275 -244 -401
-338 -301 -224 -623 -408 -983 -563 -256 -109 -701 -242 -935 -279 -14 -2 -52
-9 -85 -15 -33 -5 -78 -12 -100 -15 -22 -4 -49 -8 -60 -10 -11 -2 -28 -4 -38
-4 -13 -1 -16 -7 -13 -23 3 -13 8 -50 11 -83 18 -187 25 -236 33 -231 4 2 38
7 77 11 38 4 72 8 75 10 4 2 26 6 51 9 45 6 57 8 145 26 28 6 64 13 80 16 47
8 220 52 339 86 598 169 1175 463 1691 860 203 157 561 495 688 650 l38 48
-28 23 c-213 178 -243 200 -244 180z"/>
<path d="M3990 5514 c-34 -96 -66 -176 -69 -179 -4 -2 -78 -22 -165 -45 -86
-23 -166 -44 -176 -48 -16 -6 -6 -17 59 -65 43 -31 86 -65 97 -75 10 -10 35
-29 54 -42 66 -46 68 -50 65 -112 -13 -242 -16 -308 -11 -308 4 0 73 45 155
101 l150 101 172 -66 c95 -37 173 -65 174 -64 2 2 -19 77 -46 168 -27 91 -48
172 -49 180 0 8 52 78 115 155 63 76 113 141 111 142 -1 2 -85 5 -186 8 -101
3 -184 6 -185 8 -1 1 -46 72 -101 158 l-101 157 -63 -174z"/>
<path d="M5893 5472 c-40 -48 -88 -106 -108 -129 l-36 -42 93 -69 c444 -327
908 -566 1439 -742 166 -55 460 -131 594 -153 17 -3 68 -12 115 -21 47 -8 109
-18 139 -21 30 -4 62 -8 72 -10 10 -2 49 -7 86 -10 37 -4 84 -8 104 -10 134
-15 576 -22 699 -10 19 1 55 3 79 4 l44 1 -6 68 c-4 37 -9 87 -12 112 -9 61
-13 100 -14 132 l-1 27 -87 -6 c-132 -9 -410 -8 -573 1 -158 9 -159 10 -240
20 -326 41 -602 102 -900 198 -453 146 -954 404 -1331 688 -44 33 -81 60 -82
60 -1 -1 -34 -40 -74 -88z"/>
<path d="M12889 5319 c-98 -15 -133 -40 -338 -243 l-195 -194 66 -66 c36 -36
70 -66 76 -66 6 0 17 8 24 18 7 9 23 25 34 35 21 18 24 15 263 -224 l242 -243
-40 -40 -39 -41 67 -67 67 -67 164 164 165 165 -65 65 c-35 36 -68 65 -71 65
-4 0 -22 -14 -39 -32 l-32 -31 -89 89 c-49 49 -89 93 -89 98 0 4 26 36 58 71
106 113 134 216 92 344 -45 140 -176 221 -321 200z m55 -267 c55 -50 57 -118
4 -178 l-31 -35 -79 78 c-43 42 -78 80 -78 84 0 11 54 61 75 70 27 11 86 1
109 -19z"/>
<path d="M5251 4733 c-49 -69 -52 -78 -37 -88 10 -5 31 -20 47 -31 l29 -21
-134 -189 c-74 -104 -161 -227 -192 -273 -32 -46 -64 -85 -71 -88 -7 -3 -30 9
-52 26 l-40 32 -23 -33 c-50 -69 -75 -103 -82 -115 -6 -12 38 -47 231 -183 43
-30 80 -57 83 -60 3 -3 16 -12 30 -21 24 -16 25 -15 77 57 29 39 53 77 53 83
0 6 -8 15 -17 20 -60 35 -61 30 22 145 l76 106 62 -42 c129 -87 242 -105 353
-54 68 31 106 65 139 121 70 123 48 269 -57 372 -40 40 -125 103 -137 103 -5
0 -11 4 -13 8 -4 11 -275 202 -285 202 -5 0 -33 -35 -62 -77z m300 -333 c40
-37 41 -42 36 -85 -7 -69 -64 -118 -124 -109 -27 4 -93 43 -93 55 0 12 123
179 132 179 4 0 26 -18 49 -40z"/>
<path d="M12258 4695 c-2 -2 -23 -4 -48 -6 -90 -5 -207 -60 -288 -133 -202
-184 -221 -459 -48 -700 150 -210 345 -293 553 -236 171 47 308 167 374 330
32 78 32 219 0 310 -49 141 -178 302 -293 369 -30 17 -81 37 -114 45 -61 15
-131 26 -136 21z m49 -257 c56 -28 149 -115 192 -182 37 -56 78 -172 76 -213
-5 -79 -17 -113 -57 -153 -46 -46 -125 -74 -179 -65 -117 20 -235 124 -303
265 -36 75 -41 93 -41 155 1 105 41 168 135 212 36 17 124 8 177 -19z"/>
<path d="M6013 4293 c-4 -10 -22 -44 -41 -76 -18 -32 -31 -64 -28 -72 2 -7 21
-21 41 -30 24 -12 32 -21 27 -29 -5 -6 -30 -49 -55 -96 -24 -47 -56 -105 -69
-130 -14 -25 -54 -97 -88 -160 -70 -127 -100 -181 -107 -193 -2 -4 -19 1 -37
13 -19 11 -38 20 -43 20 -10 0 -98 -159 -91 -165 3 -2 62 -35 171 -93 28 -16
87 -48 130 -71 43 -24 79 -41 81 -40 18 25 86 162 82 166 -3 4 -21 16 -40 27
l-35 21 162 296 162 297 42 -21 c23 -11 44 -19 46 -16 12 13 88 161 86 163
-13 11 -376 206 -383 206 -4 0 -10 -8 -13 -17z"/>
<path d="M11560 4279 c-22 -13 -351 -169 -378 -180 -21 -8 -22 -11 -9 -36 60
-122 71 -143 79 -143 5 0 26 9 48 20 22 11 42 20 45 20 6 0 80 -147 90 -180 6
-18 -8 -28 -139 -90 -80 -39 -150 -70 -154 -70 -5 0 -29 44 -54 98 l-45 97 46
24 c25 13 48 25 50 27 3 3 -13 41 -34 87 -22 45 -40 83 -41 85 -1 1 -59 -25
-130 -59 -71 -33 -163 -77 -204 -96 -41 -20 -77 -37 -79 -39 -5 -5 79 -174 87
-174 4 0 22 9 41 21 18 11 35 19 37 17 7 -8 268 -552 284 -594 7 -19 3 -24
-31 -39 -21 -10 -39 -23 -39 -29 1 -21 78 -161 88 -159 5 1 89 41 187 88 98
47 181 85 185 85 4 0 13 6 19 13 8 10 1 33 -29 95 -22 45 -42 82 -45 82 -3 0
-24 -9 -46 -21 -22 -11 -45 -19 -50 -17 -5 2 -34 53 -63 115 l-54 112 51 24
c29 14 98 48 154 75 l102 49 17 -36 c9 -20 34 -72 56 -115 21 -44 38 -81 38
-82 0 -2 -22 -15 -50 -29 -39 -20 -48 -29 -43 -43 16 -41 73 -152 79 -152 3 0
51 22 107 49 56 27 146 70 200 95 53 26 97 51 97 56 0 22 -76 160 -88 160 -7
0 -27 -7 -43 -16 -17 -8 -32 -14 -34 -12 -2 2 -26 51 -53 108 -89 190 -129
274 -181 380 -28 57 -51 109 -51 115 0 6 18 20 40 31 l39 19 -42 86 c-33 69
-45 85 -57 78z"/>
<path d="M6499 3888 c-51 -68 -96 -128 -101 -134 -9 -13 124 -124 149 -124 7
0 22 14 32 31 23 37 105 89 141 89 28 0 170 -49 170 -59 -1 -3 -39 -33 -86
-66 -47 -33 -207 -148 -356 -255 l-271 -195 -24 -64 c-13 -35 -22 -65 -21 -66
3 -2 735 -274 755 -280 12 -4 203 230 203 248 0 3 -31 30 -69 61 l-69 55 -39
-31 c-21 -17 -62 -42 -91 -55 l-52 -25 -68 23 c-37 12 -71 25 -77 29 -5 3 -29
12 -52 20 -24 7 -43 16 -43 19 0 4 43 38 96 76 53 39 104 77 114 85 10 8 31
24 46 35 15 11 120 89 233 174 l206 153 23 61 c22 58 22 62 6 74 -10 7 -23 13
-30 13 -7 0 -39 11 -71 24 -50 21 -249 96 -482 182 -35 13 -68 24 -72 24 -5 0
-50 -55 -100 -122z"/>
<path d="M10447 3795 c-49 -13 -90 -25 -92 -27 -3 -2 2 -25 10 -52 l14 -47
-30 25 c-17 14 -41 27 -55 28 -13 1 -39 3 -56 4 -125 8 -300 -100 -357 -220
-67 -144 2 -312 147 -360 68 -23 80 -25 211 -31 211 -10 258 -20 291 -62 11
-14 20 -36 20 -49 0 -31 -40 -75 -92 -101 -155 -78 -298 -40 -328 87 -7 28
-16 53 -21 56 -12 7 -179 -36 -179 -47 0 -23 100 -402 109 -411 4 -4 45 3 91
15 92 26 95 29 75 100 l-7 28 36 -22 c84 -49 257 -29 391 46 69 38 104 73 133
130 73 147 -16 366 -173 424 -63 24 -108 30 -275 36 -69 2 -132 6 -140 8 -41
9 -58 19 -68 41 -23 51 46 127 128 141 99 17 184 -27 213 -109 3 -10 187 34
187 45 0 10 -89 341 -92 344 -2 2 -43 -8 -91 -20z"/>
<path d="M7523 3678 c-13 -17 -143 -278 -143 -288 0 -7 155 -90 169 -90 5 0
16 16 26 36 35 73 119 133 170 120 19 -5 56 -11 115 -21 8 -1 14 -6 12 -11 -2
-9 -114 -128 -471 -499 -143 -150 -135 -136 -147 -232 -5 -39 -4 -43 15 -44
12 -1 24 -2 29 -3 4 -1 27 -6 52 -10 25 -5 54 -10 65 -12 11 -3 36 -7 55 -10
19 -3 96 -16 170 -29 74 -14 149 -27 165 -30 17 -2 40 -7 51 -9 12 -2 37 -7
55 -10 19 -3 58 -10 88 -16 30 -5 55 -9 56 -8 1 2 35 65 74 141 83 157 85 139
-25 197 l-63 33 -48 -50 c-78 -81 -116 -96 -198 -79 -11 2 -53 10 -92 17 -40
7 -73 16 -73 19 0 3 22 28 48 56 26 27 92 99 147 159 55 60 114 123 130 141
17 17 73 77 125 134 52 57 103 110 112 119 21 20 33 53 42 113 8 51 6 54 -44
62 -40 6 -347 61 -430 76 -89 16 -222 40 -225 40 -1 0 -7 -6 -12 -12z"/>
<path d="M8785 3504 c-8 -20 -15 -38 -15 -41 0 -2 -8 -23 -19 -46 -10 -23 -67
-163 -126 -312 -58 -148 -110 -279 -115 -290 -5 -11 -19 -49 -32 -85 l-24 -65
-56 0 -57 0 1 -98 1 -97 191 3 190 2 0 81 c-1 97 -6 114 -34 109 -25 -5 -25
-2 -1 60 l19 50 149 3 149 2 22 -45 c28 -57 28 -65 -2 -65 -23 0 -24 -1 -22
-95 l1 -95 220 2 220 3 0 75 c1 118 2 116 -61 116 l-55 -1 -43 95 c-24 52 -54
120 -68 150 -14 30 -50 111 -81 180 -30 69 -71 159 -90 200 -18 41 -49 112
-68 157 l-34 82 -72 1 -73 0 -15 -36z m144 -520 c1 -8 -25 -11 -79 -11 -44 1
-80 4 -80 9 0 4 11 33 25 64 14 31 25 60 25 65 0 4 5 20 11 36 11 28 12 27 55
-62 23 -49 43 -95 43 -101z"/>
</g>
</svg>
